<svg width="24" height="25" viewBox="0 0 24 25" fill="none" xmlns="http://www.w3.org/2000/svg">
<path fill-rule="evenodd" clip-rule="evenodd" d="M22.1998 12.1995C22.1998 17.8328 17.6331 22.3995 11.9998 22.3995C6.3665 22.3995 1.7998 17.8328 1.7998 12.1995C1.7998 6.56624 6.3665 1.99954 11.9998 1.99954C17.6331 1.99954 22.1998 6.56624 22.1998 12.1995ZM12.3653 9.52963C11.3732 9.94228 9.39041 10.7964 6.4169 12.0919C5.93405 12.2839 5.68111 12.4717 5.65809 12.6554C5.61917 12.9658 6.0079 13.0881 6.53725 13.2545C6.60925 13.2771 6.68386 13.3006 6.76034 13.3255C7.28114 13.4948 7.9817 13.6928 8.34589 13.7007C8.67625 13.7078 9.04496 13.5716 9.45204 13.2921C12.2303 11.4167 13.6644 10.4688 13.7545 10.4483C13.818 10.4339 13.906 10.4158 13.9656 10.4688C14.0253 10.5218 14.0194 10.6222 14.0131 10.6491C13.9746 10.8133 12.4487 12.2319 11.659 12.9661C11.4129 13.1949 11.2383 13.3573 11.2026 13.3943C11.1226 13.4774 11.0411 13.556 10.9628 13.6315C10.4789 14.0979 10.1161 14.4476 10.9829 15.0188C11.3994 15.2933 11.7327 15.5203 12.0652 15.7467C12.4283 15.994 12.7905 16.2407 13.2592 16.5479C13.3786 16.6261 13.4926 16.7074 13.6036 16.7866C14.0263 17.0879 14.4059 17.3586 14.875 17.3154C15.1475 17.2903 15.4291 17.034 15.5721 16.2697C15.91 14.4632 16.5742 10.5492 16.7277 8.93637C16.7411 8.79506 16.7242 8.61422 16.7106 8.53483C16.697 8.45544 16.6686 8.34233 16.5655 8.2586C16.4432 8.15944 16.2546 8.13853 16.1702 8.14001C15.7866 8.14677 15.198 8.35144 12.3653 9.52963Z" fill="white"/>
</svg>
