<svg width="24" height="25" viewBox="0 0 24 25" fill="none" xmlns="http://www.w3.org/2000/svg">
<path d="M20.3303 4.68068C18.7535 3.95042 17.0888 3.43236 15.3789 3.13971C15.1449 3.56283 14.9332 3.99817 14.7446 4.4439C12.9232 4.16626 11.071 4.16626 9.24961 4.4439C9.06095 3.99822 8.84924 3.56288 8.61535 3.13971C6.90433 3.43483 5.2386 3.95413 3.66019 4.6845C0.526644 9.37425 -0.322811 13.9475 0.101917 18.4559C1.937 19.8274 3.99098 20.8704 6.17458 21.5397C6.66626 20.8708 7.10134 20.1611 7.47519 19.4182C6.76511 19.15 6.07975 18.819 5.42706 18.4291C5.59884 18.3031 5.76684 18.1733 5.92918 18.0472C7.82837 18.9507 9.90124 19.4191 12 19.4191C14.0987 19.4191 16.1715 18.9507 18.0707 18.0472C18.235 18.1828 18.403 18.3126 18.5729 18.4291C17.9189 18.8196 17.2323 19.1512 16.5209 19.4202C16.8943 20.1627 17.3294 20.8717 17.8216 21.5397C20.007 20.8731 22.0626 19.8306 23.898 18.4578C24.3963 13.2295 23.0467 8.69828 20.3303 4.68068ZM8.01318 15.6833C6.82961 15.6833 5.85179 14.5967 5.85179 13.2601C5.85179 11.9234 6.79563 10.8274 8.0094 10.8274C9.22318 10.8274 10.1934 11.9234 10.1727 13.2601C10.1519 14.5967 9.21941 15.6833 8.01318 15.6833ZM15.9867 15.6833C14.8013 15.6833 13.8272 14.5967 13.8272 13.2601C13.8272 11.9234 14.7711 10.8274 15.9867 10.8274C17.2024 10.8274 18.1651 11.9234 18.1444 13.2601C18.1236 14.5967 17.193 15.6833 15.9867 15.6833Z" fill="white"/>
</svg>
