<svg width="24" height="25" viewBox="0 0 24 25" fill="none" xmlns="http://www.w3.org/2000/svg">
<path fill-rule="evenodd" clip-rule="evenodd" d="M17.3728 9.90104C18.0699 10.8729 18.4452 12.0526 18.4318 13.2457C18.4318 14.4187 18.0565 15.585 17.3728 16.5435L18.8206 17.6427C19.7456 16.3692 20.2483 14.8209 20.2483 13.2524C20.255 11.5968 19.7121 9.96807 18.7134 8.65433L17.8822 9.40504L17.3728 9.89434V9.90104Z" fill="#fff"/>
<path fill-rule="evenodd" clip-rule="evenodd" d="M20.1078 18.6147L15.2416 14.9148C15.5901 14.459 15.7845 13.9027 15.818 13.3262C15.8381 12.7498 15.6907 12.1868 15.3823 11.6975L17.7149 9.59278L20.1547 7.30714C20.3156 7.15968 20.3223 6.89827 20.1614 6.7441L19.8263 6.40897C18.0903 4.65284 15.751 3.62732 13.2911 3.55359V2.21303C13.3112 2.1259 13.2978 2.03206 13.2844 1.94492C13.2576 1.85779 13.2173 1.77735 13.157 1.70362C13.0967 1.63659 13.0297 1.58297 12.9358 1.54276C12.8554 1.50254 12.7683 1.48243 12.6811 1.48243C12.594 1.48243 12.5001 1.50254 12.4264 1.54276C12.346 1.58297 12.2655 1.62989 12.2052 1.70362C12.1449 1.77065 12.098 1.85108 12.0779 1.93152C12.0511 2.01865 12.0377 2.11249 12.0578 2.19963V3.5804C11.4612 3.64072 10.8781 3.74797 10.315 3.91554V2.19963C10.3351 2.11249 10.3217 2.01865 10.3083 1.93152C10.2815 1.84438 10.2413 1.76395 10.181 1.69022C10.1207 1.61649 10.0536 1.56957 9.95979 1.52935C9.87936 1.48913 9.79222 1.46902 9.70509 1.46902C9.61795 1.46902 9.52411 1.48913 9.45038 1.52935C9.36995 1.56957 9.28951 1.61649 9.22919 1.69022C9.16886 1.76395 9.12195 1.83768 9.10184 1.91811C9.07503 2.00525 9.06162 2.09908 9.08173 2.18622L9.05492 4.37803C7.05079 5.2695 5.40861 6.83124 4.4032 8.78175C3.38437 10.7457 3.06264 12.9911 3.50502 15.1427C3.9407 17.2943 5.10028 19.2448 6.78938 20.6524C8.47178 22.0599 10.5966 22.8576 12.7884 22.8978L19.8732 22.9246C20.0944 22.9246 20.2687 22.7436 20.2687 22.5291V18.9431C20.2687 18.8158 20.2083 18.6951 20.1078 18.6147ZM12.9224 21.1685C11.1797 21.1618 9.4839 20.5719 8.10312 19.5129C6.72235 18.4404 5.73705 16.939 5.28796 15.2566C4.83888 13.5675 4.97293 11.7712 5.63651 10.1625C6.31348 8.55385 7.49317 7.2066 9.008 6.32853V8.93591C8.98789 9.02305 9.0013 9.11688 9.0147 9.20402C9.04151 9.29116 9.08173 9.37159 9.14205 9.44532C9.20238 9.51235 9.26941 9.56597 9.36325 9.60619C9.44368 9.6464 9.53081 9.66651 9.61795 9.66651C9.70509 9.66651 9.79893 9.6464 9.87266 9.60619C9.95309 9.56597 10.0335 9.51905 10.0938 9.44532C10.1542 9.37829 10.2011 9.29786 10.2212 9.21743C10.248 9.13029 10.2614 9.03645 10.2413 8.94932V5.74539C11.1261 5.43036 12.0444 5.2762 12.976 5.2762C14.6919 5.2762 16.3542 5.83923 17.7149 6.87146C17.8154 6.95189 17.8221 7.09265 17.735 7.17978L14.0284 10.5848C13.6932 10.444 13.3246 10.3636 12.9559 10.3636C12.5471 10.3636 12.1449 10.444 11.7695 10.6116C11.3942 10.7792 11.0657 11.0272 10.7976 11.3355C10.5295 11.6438 10.3284 12.0125 10.2145 12.3945C10.0938 12.79 10.067 13.1989 10.1274 13.6077C10.1877 14.0166 10.3284 14.3987 10.5429 14.7472C10.7641 15.0958 11.059 15.384 11.3942 15.6119C11.7427 15.8331 12.1248 15.9805 12.5337 16.0408C12.9425 16.1012 13.3581 16.0677 13.7402 15.9537L18.479 19.5598C18.5259 19.6 18.5594 19.6603 18.5594 19.7207V20.9942C18.5527 21.1014 18.4589 21.1953 18.3517 21.1953L12.9224 21.1752V21.1685ZM14.082 13.2257C14.082 13.4469 14.015 13.6614 13.8943 13.849C13.767 14.0367 13.5994 14.1775 13.3916 14.2646C13.1838 14.3517 12.9559 14.3719 12.7481 14.3249C12.5404 14.278 12.3326 14.1775 12.1717 14.0166C12.0108 13.8557 11.9036 13.6614 11.8634 13.4402C11.8232 13.219 11.8433 12.9911 11.9304 12.7967C12.0175 12.5889 12.1583 12.4213 12.346 12.2873C12.5337 12.1666 12.7548 12.0996 12.9693 12.0996C13.2643 12.0996 13.5525 12.2203 13.7603 12.4348C13.9613 12.6358 14.0753 12.9107 14.0753 13.219L14.082 13.2257Z" fill="#fff"/>
</svg>
